<?xml version="1.0" encoding="UTF-8"?>
<svg id="Layer_1" xmlns="http://www.w3.org/2000/svg" version="1.1" viewBox="0 0 390 390">
  <!-- Generator: Adobe Illustrator 30.0.0, SVG Export Plug-In . SVG Version: 2.1.1 Build 123)  -->
  <rect x="87.02" y="73.72" width="215.97" height="215.96" transform="translate(-71.37 191.1) rotate(-45)" fill="#1c272d"/>
  <path d="M349,234.25v.79l-84.5,83.71v-51.33l-69.78,67.86L41,182.12v-.79L194.21,28.12h.79l152.86,153.22v1.57l-24.87,25.56,26,25.78ZM264.5,263.07v-113.33l56.47,56.85,23.34-23.26.39-1.99L194.71,32.13,45.01,182.41l149.71,149.71,69.78-69.05Z" fill="#dedde1"/>
  <path d="M185.52,108.57v17.37h15.01v-17.37h11.85v48.17h-11.85v-17.77l-1.31-1.06c-4.27.27-10.2-1.37-13.7,1.06v17.77h-11.85v-48.17h11.85Z" fill="#dedde1"/>
  <path d="M225.8,159.91l11.85,19.74v-19.74h11.85v42.25c-2.89,2.34-8.06.87-11.72,1.06l-12.76-21.19v21.32h-11.06v-43.44h11.85Z" fill="#dedde1"/>
  <path d="M248.7,108.57v11.85h-20.14c-1.84,1.58-1.84,5.53,0,7.11h15.4v11.06h-16.58l.12,5.01,1.06,1.31h20.14v11.85h-33.17v-48.17h33.17Z" fill="#dedde1"/>
  <path d="M165.77,123.58c-5.02-2.11-11.69-6.66-16.57-1.95-.7,3.02,13.09,7.57,15.74,9.5,5.86,4.26,7.76,11.44,4.7,18.03-5.22,11.23-25.08,9.14-33.53,2.85l4.87-10.21c2.54,2.37,18.3,6.82,17.46,1.12-.42-2.84-11.85-6.69-14.72-8.73-6.3-4.47-8.9-10.71-5.49-18.03,5.04-10.84,24.15-9.12,32.21-2.47l-4.67,9.89Z" fill="#dedde1"/>
  <path d="M210.01,203.34h-11.85l-.87-4.65-14.22.37-.7,4.28h-11.85l12.6-43.07,14.66.41,12.23,42.66ZM191.05,173.33c-2.05-.22-1.26,0-1.6,1.16-1.42,4.81-1.98,9.96-3.93,14.63h8.69s-3.17-15.79-3.17-15.79Z" fill="#dedde1"/>
  <path d="M196.58,245.99l13-40.33,12.19.13,11.13,40.19c-2.67-.45-7.49.71-9.77-.09-1.58-.56-.98-3.2-2.57-3.75-.88-.31-11.6-.4-12.05,0l-.88,3.86h-11.06ZM218.69,233.35l-3.94-15-3.96,14.99h7.9Z" fill="#dedde1"/>
  <path d="M137.35,205.71c12.89.64,31.62-2.74,31.63,15.4,0,13.25-10.15,15.42-21.37,14.61v10.27s-10.26,0-10.26,0v-40.28ZM147.61,226.25c14.34,2.17,14.47-12.68,0-10.27v10.27Z" fill="#dedde1"/>
  <path d="M168.9,161.53c.9,1.3-4.47,8.36-5.47,9.88-22.15-7.44-20.73,29.29,1.55,19.3l5.54,9.47c-12.14,6.67-29.45,3.5-33.58-11.03-5.87-20.67,12.5-36.49,31.96-27.61Z" fill="#dedde1"/>
  <polygon points="236.07 205.71 241.2 217.57 246.33 205.71 257.39 205.71 246.33 229.8 246.33 245.99 236.07 245.99 236.07 229.8 225.01 205.71 236.07 205.71" fill="#dedde1"/>
  <polygon points="181.57 205.71 181.57 236.51 193.42 236.51 193.42 245.99 171.31 245.99 171.31 205.71 181.57 205.71" fill="#dedde1"/>
  <path d="M253.95,149.7c2.89-.5,4.72,5.48.57,6.19-2.89.5-4.72-5.48-.57-6.19Z" fill="#dedde1"/>
  <path d="M253.95,196.3c2.89-.5,4.72,5.48.57,6.19-2.89.5-4.72-5.48-.57-6.19Z" fill="#dedde1"/>
  <path d="M253.95,239.73c2.89-.5,4.72,5.48.57,6.19-2.89.5-4.72-5.48-.57-6.19Z" fill="#dedde1"/>
</svg>