<?xml version="1.0" encoding="UTF-8"?>
<svg id="Layer_1" xmlns="http://www.w3.org/2000/svg" version="1.1" viewBox="0 0 578.16 529.2">
  <!-- Generator: Adobe Illustrator 30.0.0, SVG Export Plug-In . SVG Version: 2.1.1 Build 123)  -->
  <path d="M187.92,183.28c2.57.11,5.79,2.41,7.75,3.98l.91-9.17c1.34-1.02,12.44,2.42,14.98,2.39-1.32,8.73-2.17,17-1.58,25.88-.62.77-12.56,3.7-13.38,3.55-1.71-.31-1.3-2.76-1.78-3.86-5.31-12.22-16.48.46-6.86,5.15,5.34,2.6,15.09.82,21.6,2.88,9.7,3.07,15.25,14.95,12.14,24.54-1.61,4.98-2.96,2.64-6.82,3.43-2.73.55-8.21,2.3-10.97,3.26-8.06,2.82-6.09,4.33-4.25,11.97-16.81,4.06-30.44-11.59-28.45-27.55l.95-.79c3.29.06,12.65-4.24,15.17-3.48,1.46.44.43,1.87.53,2.91.37,3.95,1.59,8.63,5.7,10.25,10.99,4.34,15.58-10.9,6.51-14.48-6.89-2.72-14.8-.55-21.75-3.3-16.18-6.42-12.21-38.18,7.1-37.55"/>
  <path d="M230.43,293.17l5.43,18.77-19.1,6.23c-.74-3.42-1.97-6.68-2.69-10.12-1.83-8.74-3.85-19.5-4.73-28.29-.48-4.78-.37-10.24-.58-15.08-1.21.34-5.18,3.01-5.98,1.71-.69-4.67-2.63-9.96-3.07-14.59s2.83-4.49,6.65-5.75c15.84-5.23,41.15-6.29,47.79,12.82,1.87,5.38,1.47,13.98-1.04,19.12-4.22,8.64-13.43,13.79-22.69,15.18ZM226.88,260.82c-.74.06-3.03.55-3.23,1.34.77,2.01,2.02,15.5,3.63,15.6,5.33-2.59,11.02-5.9,8.3-12.84-1.14-2.9-5.82-4.32-8.7-4.11Z"/>
  <path d="M378.46,245.9l-38.7,70.91c-.57.37-3.83-1.36-4.59-1.73-1.67-.82-11.45-5.71-11.93-6.29-3.65-4.3,7.93-5.77,8.48-7.49.61-1.92-2.44-5.25-2.14-7.17.37-2.34,6.8-8.84,6.74-10.96-2.98-4.51-6.63-8.65-9.58-13.17-2.9-4.45-8.2-12.43-10.38-16.94-.33-.69-.72-1.16-.53-2.03,1.17-1.32,9.6,2.38,11.45,2,2.78-.58.85-3.76,2.21-5.15.7-.71,3.76-1.24,4.5-.76,3.04,6.64,6.66,13.08,10.79,19.1.37.54.6,1.54,1.52,1.32l11.17-23.27,21,1.64Z"/>
  <path d="M380.74,253.29l-3.98-.57c-.81-.75,5.24-5.34,2.86-7.7-1.84-1.82-12.32-.14-15.09-2.56l-7.42-23.89c-1.46,6.15-.48,12.51-.85,18.78-1.56-.02-3.5-.12-4.45-1.53-1.31-1.94-3.79-9.19-4.68-11.83-2.37-6.94-3.87-11.15-3.32-18.74.16-2.23,2.5-17.77,3.32-18.31l11.69-.29,10.53,32.48c.02-6.34.05-12.75.58-19.06.21-2.56,1.21-13.7,2.01-15.07.49-.84.93-.84,1.7-1.14,1.41-.56,14.96-3.58,15.92-3.46.69.09,1.01.35,1.41.88l-3.74,13.22c-1.07,11.75-3.39,23.57-4.73,35.23-.9,7.82-1.84,15.7-1.76,23.57Z"/>
  <path d="M316.48,264.03c1.38.6,3.24-.88,4.46-.23,2.71,1.43,4.94,8.7,4,11.71l-3.05.08-.86,1.22,9.07,23.96-18.25,6.04-6.81-28.22-7.9.99-2.32,15.5c-.68.95-4.73-.04-5.11-1.17-1.59-4.7,3.82-15.89-6.9-11.02l-.55-2.05-2.87.34c-.26-2.86-1.1-6.57-.57-9.4.47-2.53,4.54-.74,6.32-2.36l6.91-26.26,14.89-4.07,9.55,24.92ZM301.02,256.14c-1.36-.17-.91-.02-1.2.79-.48,1.32-2.63,11.31-2.21,11.73l6.25-1.16-2.84-11.36Z"/>
  <path d="M323.8,207.18l-14.23,1.14c-.68-.74,3.39-13.93-4.79-13.09-6.34.65-10.45,17.85-10.59,23.07-.1,3.8,1.31,14.01,6.03,14.5s7.33-7,7.64-10.82l14.19,6.64c-1.45,6.76-4.24,14.24-10.5,17.84-.73.24-1-8.44-4.67-8.99-2.82-.42-11.35,4.35-15.12,4.01l-1.57,2.14c-4.56-2.05-.24-8.32-4.02-11.06-1.65-1.2-2.92-.07-3.69-3.14-4.36-17.34,5.62-53.53,28.82-49.31,11.76,2.14,13.52,17.41,12.5,27.07Z"/>
  <path d="M271.04,303.98c-1.87.2-3.79.61-5.58,1.15-1.89.57-7.24,2.75-8.64,2.81-1.98.08-5.66-4.77-7.52-6.01,1.83-5.31.6-12.42,1.73-17.5.33-1.51,2.73-3.7,3.58-5.53,2.49-5.36,2.69-14.28,1.15-19.93-.41-1.49-1.89-3.04-1.97-4.87-.13-3.16,1.69-7.36,1.1-10.77l.94-1.38,17.89,3.15-8.01,44.62,20.9-6.74c.46-.24,1.31.59,1.31.77,0,5.08.23,10.31,0,15.37,0,.12.56.46.33.86-.75,1.47-13.02,3.49-16,3.8"/>
  <path d="M223.01,241.34c.7-6.18,1.43-13.56-1.48-19.3-1.07-2.11-5.53-5.97-5.9-6.77-.77-1.64-2.54-13.83-2.8-16.4-.55-5.29,2.02-6.05,6.39-8.3,1.43-.73,4.75-2.89,6.12-1.94l1.67,21.96,7.26-2.53c-.32-4.02-5.04-25.61-3.59-27.68.45-.57,1.1-.53,1.74-.58.83-.08,9.22,1.04,10.14,1.3.69.19,1.22.75,1.42,1.43,1.33,4.53.76,12.94,1.26,18.09,1.13,11.66,2.8,23.27,5.03,34.75l-1.18.71-12.31-1.1-1.22-15.86c-.31-.32-6.99,1.61-6.86,3.14l3.99,18.79c-.87,1.39-1.2.28-1.41.28h-8.26Z"/>
  <path d="M340.32,255.57l-4-18.22-7.9,1.78-1.21,12.45-13.66-4.27c4-2.19,11.63-15.92,9.98-19.62-.85-1.9-6.37-2.9-6.59-3.82l2.31-14.98c8.18,1.33,5.97-3.81,6.32-9.62l10.48-3.97,17.94,51.5c.23,3.7-11.03,6.58-13.67,8.77ZM331.19,215.72c-1.18-1.17-1.57,2.69-1.63,3.2-.44,3.84-.41,7.79-1.2,11.6l6.26-1.14-3.43-13.66Z"/>
  <path d="M258.9,204.93l-1.16,8.52,8.2-1.68.67,1.14-1.54,9.58-8.53,1.44-.51,7.74,19-5.65.82,1.24c-1.13,4.43-1.09,8.96-1.05,13.49-2.71-.08-6.17,1.64-8.72,1.54-2.23-.09-9.25-2.35-10.8-1.99-2.02.47-1.6,4.4-2.2,4.93-.34.3-3.84.73-4.6.58-1.66-.33-2.45-2.14-3.52-3.37-1.77-2.02-3.15-1.21-1.4-5.61l6.44.96,1.49-1.89c-1.39-15.04-6.61-29.61-1.61-44.56l26.87-5.15c.73.2.83.71.95,1.36.21,1.14-1.72,12.3-2.28,13.66-.16.4-.16.86-.58,1.13l-15.92,2.59Z"/>
  <path d="M355.26,307.24c-2.29-2.36-.08-12.82,4.16-13.49,4.87-.77,9.02.13,8.82,5.92-.05,1.45-2.13,7.41-3.17,8.26-2.13,1.76-7.87,1.31-9.81-.7Z"/>
  <path d="M392.54,237.53c1.05.89,1.37,2.76,1.35,4.09-.02,1-1.42,5.89-1.89,6.41-1.03,1.14-5.45,1.33-6.86.16-2.33-1.93-1.31-8.93.3-10.7,1.13-1.24,5.7-1.17,7.1.03Z"/>
  <path d="M281.53,232.9c7.33-.94,6.37,13.17-1.23,12.26-4.92-.59-4.41-11.53,1.23-12.26Z"/>
</svg>